<svg style="height: 200px; width: 200px;" xmlns="http://www.w3.org/2000/svg" viewBox="0 0 512 512"><defs><filter id="shadow-1" height="300%" width="300%" x="-100%" y="-100%"><feFlood flood-color="rgba(255, 255, 255, 1)" result="flood"></feFlood><feComposite in="flood" in2="SourceGraphic" operator="atop" result="composite"></feComposite><feGaussianBlur in="composite" stdDeviation="15" result="blur"></feGaussianBlur><feOffset dx="0" dy="0" result="offset"></feOffset><feComposite in="SourceGraphic" in2="offset" operator="over"></feComposite></filter><linearGradient x1="0" x2="1" y1="0" y2="1" id="delapouite-smartphone-gradient-0"><stop offset="0%" stop-color="#ef1a0b" stop-opacity="1"></stop><stop offset="100%" stop-color="#efc00b" stop-opacity="1"></stop></linearGradient></defs><path d="M10 10h492v492H10z" fill="url(#delapouite-smartphone-gradient-0)" stroke="#0e0000" stroke-opacity="1" stroke-width="10"></path><g class="" style="" transform="translate(0,0)"><path d="M160 32c-16 0-32 16-32 32v384c0 16 16 32 32 32h192c16 0 32-16 32-32V64c0-16-16-32-32-32H160zm21.68 23h96v18h-96V55zM304 55h32v18h-32V55zM154 96h204v320H154V96zm70 342h63.984c16 0 16 16 16 16v6H208v-6s0-16 16-16z" fill="#000000" fill-opacity="1" filter="url(#shadow-1)"></path></g></svg>